/* XPM */
static char *_2eda8fff8b941dd973632493371da7fNH3EqE9u8nIiS34b[] = {
/* columns rows colors chars-per-pixel */
"65 65 138 2 ",
"   c None",
".  c #BC6E01",
"X  c #BE7103",
"o  c #BE730C",
"O  c #BF7611",
"+  c #C17506",
"@  c #C37807",
"#  c #C37709",
"$  c #C57A09",
"%  c #C87E0C",
"&  c #C07712",
"*  c #C27A16",
"=  c #C37C1B",
"-  c #BF8022",
";  c #CB820E",
":  c #CE8511",
">  c #CF8912",
",  c #D08712",
"<  c #D38B14",
"1  c #D58F18",
"2  c #D69017",
"3  c #D79118",
"4  c #DC951B",
"5  c #DC971B",
"6  c #DB961C",
"7  c #DA941A",
"8  c #DC981C",
"9  c #DD991C",
"0  c #DC991D",
"q  c #DD991D",
"w  c #DF991D",
"e  c #DC9A1D",
"r  c #DD9A1D",
"t  c #DD9B1D",
"y  c #DD991E",
"u  c #DD9A1E",
"i  c #DE9A1E",
"p  c #DF9A1E",
"a  c #DE9B1E",
"s  c #DE9A1F",
"d  c #DE9C1E",
"f  c #DF9C1E",
"g  c #DF9C1F",
"h  c #DE9A1D",
"j  c #E09C1F",
"k  c #E09D1F",
"l  c #E19D1F",
"z  c #E29D1F",
"x  c #E19D1F",
"c  c #C48021",
"v  c #C58022",
"b  c #C48023",
"n  c #C68225",
"m  c #C58124",
"M  c #C68329",
"N  c #C6852A",
"B  c #C6842B",
"V  c #C68228",
"C  c #DE9B20",
"Z  c #DF9C20",
"A  c #DF9D20",
"S  c #C68730",
"D  c #C88831",
"F  c #CB8E3A",
"G  c #E19D20",
"H  c #E19F21",
"J  c #E29E20",
"K  c #E29E21",
"L  c #E19E20",
"P  c #E3A021",
"I  c #E2A121",
"U  c #E2A022",
"Y  c #E3A123",
"T  c #E3A223",
"R  c #E4A122",
"E  c #E4A223",
"W  c #E5A324",
"Q  c #E7A625",
"!  c #E7A626",
"~  c #E5A323",
"^  c #E8A524",
"/  c #E9A725",
"(  c #E9A826",
")  c #EAA926",
"_  c #EBAA26",
"`  c #EBAA27",
"'  c #ECAB27",
"]  c #EAA927",
"[  c #EBA928",
"{  c #ECAB28",
"}  c #ECAB29",
"|  c #EDAB29",
" . c #EDAC29",
".. c #EDAD29",
"X. c #EDAD2A",
"o. c #EEAC2A",
"O. c #EEAC2B",
"+. c #EEAE2B",
"@. c #EDAC29",
"#. c #F0AF2C",
"$. c #F0B02B",
"%. c #F1B02B",
"&. c #F1B12B",
"*. c #F1B22B",
"=. c #F1B12C",
"-. c #F1B22C",
";. c #F2B22C",
":. c #F3B32C",
">. c #F2B32D",
",. c #F3B32D",
"<. c #F3B42E",
"1. c #F4B42E",
"2. c #F4B52F",
"3. c #F5B52F",
"4. c #F5B62F",
"5. c #F5B72F",
"6. c #F6B62F",
"7. c #F2B32D",
"8. c #F5B630",
"9. c #F6B730",
"0. c #F6B730",
"q. c #F6B830",
"w. c #F7B830",
"e. c #F7B931",
"r. c #F7B932",
"t. c #F7B931",
"y. c #F8B931",
"u. c #F8BA31",
"i. c #F8BB31",
"p. c #F9BB31",
"a. c #F8BA32",
"s. c #F9BB32",
"d. c #F9BB33",
"f. c #FABB32",
"g. c #F9BB32",
"h. c #C98F42",
"j. c #CE9446",
"k. c #CB9548",
/* pixels */
"                                                      n v = * = = = = = o *                                                       ",
"                                              = . . . . $ ; < < < < , ; % X . . . =                                               ",
"                                        = o . + : J 8.9.s.s.6.*.>.*.,.s.s.s.>./ < # . . X                                         ",
"                                    . . X 1 [ d.9.W 1 % + . . . . . . . + ; < z 9.q.o.6 X . X                                     ",
"                                o . + 7 5.:.e ; . . . . X . . X % . . . . . . . . % 7 +.q.P $ . =                                 ",
"                            B & + 3 9.o.2 o . . . + . + 8 7 . % H . . 2 8 $ . $ X . . . < ( q.z $ X &                             ",
"                          B . ; *.6.1 . . . . . C 1 . % < 7 $ . 2 . . 7 % 2 . 7 < . . . . . ; *.q.< . .                           ",
"                        o X z s.j X . . % E 7 X . 3 . + 8 3 $ + 7 + . 7 < ; . 7 @ . > P ; . . . 1 q.[ # .                         ",
"                      o $ } *.% . . X . < : 3 o . j 1 . < 1 . % < ; X > < . < P X X g X 2 . ; . . + ' #.; .                       ",
"                    o % *.[ + . . < 2 . . A ; : + 2 $ . . . . . . . . X . . + < ; @ 7 7 @ X e ; . . + j 9.< .                     ",
"                  . % >.P . . . . X 1 $ . % 7 X . . . . . . . . . . . . . . . . . X 2 > . o e . . + . . 7 s.< .                   ",
"                X # 6.8 . . 1 : . . . Q < . . . . . . . . . . . . . . . . . . . . . . . < ! @ . % K 8 . . 3 s., .                 ",
"              & @ ,.J . . . ; 3 ; . $ % . . . . . . . . + , + . . . . . . . . . . . . . . @ : X 8 . 8 . . . 5 9.% .               ",
"            B X o.o.X . < $ . . 8 1 . . . . . . . : j ,.w.#.+ . . . . . . . . . . . . . . . . @ j z $ . < . . G ,.# .             ",
"          n . 7 >.+ . : 7 7 : . < . . . . . + , ' s.s.s.} + . . . . . . . . . . . . . . . . . . ; + . + j + . + } } . .           ",
"          o : s.: X . o 8 X W . . . . . . % } s.s.s.f.#.+ . . . . . . . . . . . . . . . . . . . . . 1 8 $ . . . + 6.3 o           ",
"        j.. >.j . X . . @ P < X . . . . 2 q.s.s.s.s.w.$ + . . . . . . . . . . . . . . . . . . . . . , 7 . + < @ . : q.@ .         ",
"        . 6 *.# X g e @ X . . . . . X L s.s.s.s.s.y.< . . . . . . . . . . . . . . . . . . . . . . . . . @ P $ 6 . X [ P .         ",
"      F X >.< . . @ + 2 W . . . . . A s.s.s.s.s.s.#.. . . . . . . . . . . . . . . . . . . . . . . . . . 2 @ 7 < . . % q.: .       ",
"      . 3 >.X . % o . ; : X . . . 7 s.s.s.s.s.s.s.< . . . . . . . . . . . . . . . . . . . . . . . . . . @ 3 ; . $ X . Q W .       ",
"    D X ,.< . < 3 z < . . . . . 1 s.s.s.s.s.s.s.;.. . . . . . . . . . . . . . . . . . . . . . . . . . . . . + X 1 3 . : s.# .     ",
"    = ; s.X . ; 7 + W X . . . @ 6.s.s.s.s.s.s.s.2 . . . . . . . . . . . . . . . . . . . . . . . . . . . . . Q P % . . . / 5 .     ",
"    . E E . . . $ 2 ; . . . . W s.s.s.s.s.s.s.s.$ . . . . . . . . . . . . . . . . . . . . . . . . . . . . . 1 % . . . . 1 9..     ",
"  n + w.: . % . . + . . . . $ s.s.s.s.s.s.s.s.,.. . . . . . . . . . . . . . . . . . . . . . . . . . . . . . . X . . 3 . + d.% .   ",
"  n : 9.X . g 7 7 P . . . . W s.s.s.s.s.s.s.s.^ . . . . . . . . . . . . . . . . . . . . . . . . . . . . . . X 7 1 7 2 X . o.7 .   ",
"  . 5 ( . . X . @ 2 . . . + s.s.s.s.s.s.s.s.s.j . . . . . . . . . . . . . . . . . . . . . . . . . . . . . . . ; < . . . . 7 _ .   ",
"  . / 5 . . @ X . X . . . < s.s.s.s.s.s.s.s.f.3 . . . . . . . . . . . . . . . . . . . . . . . . . . . . . . . . X X @ . . > 5.X   ",
"= . >.< . A < 7 3 . . . X P s.s.s.s.s.s.s.s.s.1 . . . . . . . . . . . . . . . . . . . . . . . . . . . . . . . . : 9 < A X + s.@ . ",
"* # d.% . 1 3 < H . . . . q.s.s.s.s.s.s.s.s.s.2 . . . . . . . . . . . . . . . . . . . . . . . . . . . . . . . . < < 2 7 . . q.; . ",
"= ; r.. . . % ; X . . . @ q.s.s.s.s.s.s.s.s.s.7 . . . . . . . . . . . . . . . . . . . . . . . . . . . . . . . . . ; % X . . *.1 . ",
"= > 8.. . : 7 > . . . . ; s.s.s.s.s.s.s.s.s.s.z . . . . . . . . . . . . . . . . . . . . . . . . . . . . . . . . @ X . % + . o.2 o ",
"= < >.. @ 3 X : < X . . ; s.s.s.s.s.s.s.s.s.s.( . . . . . . . . . . . . . . . . . . . . . . . . . . . . . . . X ; W z W ; . ( 7 . ",
"= < *.. X 3 7 e @ . . . ; s.s.s.s.s.s.s.s.s.s.6.. . . . . . . . . . . . . . . . . . . . . . . . . . . . . . . . # % . . . . / 7 . ",
"= < *.. . . . . X . . . ; s.s.s.s.s.s.s.s.s.s.s.; . . . . . . . . . . . . . . . . . . . . . . . . . . . . . . . . + . . . . / 7 . ",
"* , >.. . . X % e . . . ; s.s.s.s.s.s.s.s.s.s.s.5 . . . . . . . . . . . . . . . . . . . . . . . . . . . . . . . + 5 J 7 + . } 3 . ",
"= ; s.. X ( g 2 g . . . + s.s.s.s.s.s.s.s.s.s.s.6.+ . . . . . . . . . . . . . . . . . . . . . . . . . . . . . . % 3 + 3 ; . #.1 . ",
"= + s.$ . % . . $ . . . . 6.s.s.s.s.s.s.s.s.s.s.s.1 . . . . . . . . . . . . . . . . . . . . . . . . . . . . . . . % 1 ; . . s.; . ",
"* . >.< . X . . : . . . . J s.s.s.s.s.s.s.s.s.s.s.*.+ . . . . . . . . . . . . . . . . . . . . . . . . . . . . . : . . . . + f.$ . ",
"  . / 5 . X ; 2 W + . . . > s.s.s.s.s.s.s.s.s.s.s.s.j . . . . . . . . . . . . . . . . . . . . . . . . . . . . + ( 3 ; < . : s..   ",
"  . 8 / . % P X + % . . . X q.s.s.s.s.s.s.s.s.s.s.s.s.; . . . . . . . . . . . . . . . . . . . . . . . . . . . + , + , ; . 2 ' .   ",
"  # < 6.. . + . . . . . . . J s.s.s.s.s.s.s.s.s.s.s.s.6.$ . . . . . . . . . . . . . . . . . . . . . . . . . . . . . . . . ' 5 .   ",
"  M + s.% . . 1 H L + X . . @ q.s.s.s.s.s.s.s.s.s.s.s.s.*.$ . . . . . . . . . . . . . . . . . . . . . . . . . H 8 j X . @ s.% X   ",
"    . W P . ; 2 + 7 + . . . . 8 s.s.s.s.s.s.s.s.s.s.s.s.s.>.% . . . . . . . . . . . . . . . . . . . . . . . . H $ $ 1 . < >..     ",
"    & , 6.X + 7 7 $ . . . . . + >.s.s.s.s.s.s.s.s.s.s.s.s.s.w.3 . . . . . . . . . . . . . . . . . . . . . . . @ 2 5 + . / J .     ",
"    F X 6.< . . . 2 6 < . . . . : s.s.s.s.s.s.s.s.s.s.s.s.s.s.s.W $ . . . . . . . . . . . . . . . . . . . ; e 7 + . . ; s.# .     ",
"      X 3 >.. . 2 % o e . . . . . 2 s.s.s.s.s.s.s.s.s.s.s.s.s.s.s.s.K % . . . . . . . . . . . . . . . . . 7 @ @ z . . L / .       ",
"      O X q.< . < P 8 + $ . . . . . 3 s.s.s.s.s.s.s.s.s.s.s.s.s.s.s.s.s.>.J < + . . . . . . . . . . . . % . 3 P 3 . $ s.; .       ",
"        . 3 =.+ . . . . , 7 . . . . . 1 s.s.s.s.s.s.s.s.s.s.s.s.s.s.s.s.s.s.s.s.w.>.#.*.6.W . . . . . 2 7 . . X . . o.J .         ",
"        = + *.5 . . . < 1 ; + . . . . . > >.s.s.s.s.s.s.s.s.s.s.s.s.s.s.s.s.s.s.s.s.s.s.g X . . . . . > 3 1 : . . < s.+ .         ",
"          o , s.$ . ; E . . $ < . . . . . + J s.s.s.s.s.s.s.s.s.s.s.s.s.s.s.s.s.s.s.>.: . . . . . + ; . . ; < . # ,.3 .           ",
"          S . C >.+ . + . . $ / < . . . . . . + / s.s.s.s.s.s.s.s.s.s.s.s.s.s.s.>.< X . . . . . . e 1 6 . . . . / *.. .           ",
"            M X #.( . . . # 3 . X : . . . . . . . + < / s.s.s.y.s.s.s.s.s.>.9 ; . . . . . . . < . e @ 3 # . . 4 >.+ +             ",
"              * $ >.8 . . 7 ; . . < Q X . . . . . . . . X % : 1 1 1 < % + X . . . . . . . X e g . X 3 8 + . 3 w., X               ",
"                o % 9.7 . . X . @ 6 X X $ + . . . . . . . . . . . . . . . . . . . . . X % . X 7 @ X . . . < s.3 .                 ",
"                k.. : ,.8 . . . g ; X < 8 8 . X . . . . . . . . . . . . . . . . . . . 3 3 2 . . ! > . . 1 s.3 . .                 ",
"                  = . % 6./ X . @ @ . g X 9 . g E + . . . . . . . . . . . . . . < W + 3 $ 7 X . X X . 8 d.1 . .                   ",
"                    h.. $ >.#.$ . . . E 8 $ . < $ + ; W 1 . ; + . ; < $ + z 5 . 7 @ 8 + Q J @ . . # ! 8.: . X                     ",
"                        & # J q.3 + . $ + . . P . . + 9 . $ 5 5 . ; 8 + % 1 7 + 2 $ J . + % . . < 8.[ @ .                         ",
"                          O . < *.#.< . . . X 8 $ . ; < . < % 7 . . 2 . + 8 : % + j 2 . . . % / 9.7 X X                           ",
"                            o . + 9 s.o., . . . . . ; g . % 1 G . . z ; . 7 P . . . . . ; Q s.( + . .                             ",
"                                = . # j s.>.j $ . . . . . . % + . . $ . . . . . . + 7 #.s.W % . .                                 ",
"                                    = . + < ' s.#.J 1 ; + . . . . . . . . % 1 j o.s.*.3 # . .                                     ",
"                                        = o . $ 1 E o.y.s.#.} ' / / o.*.6.s.*.E 3 ; . X .                                         ",
"                                              o X . . X ; < 2 3 5 5 2 < : + . . . .                                               ",
"                                                      . . . . . . . o . . .                                                       "
};
