/* XPM */
static char *ebd65e82cd20412fd1715f3507436bab3JiPz5GaW5Q2LCQD[] = {
/* columns rows colors chars-per-pixel */
"17 17 100 2 ",
"   c None",
".  c #BB6E01",
"X  c #BC6E01",
"o  c #BC6F01",
"O  c #BE7103",
"+  c #BF7203",
"@  c #BF7304",
"#  c #BF7305",
"$  c #C07304",
"%  c #C07205",
"&  c #C07305",
"*  c #C07405",
"=  c #C17405",
"-  c #C17505",
";  c #C17605",
":  c #C17506",
">  c #C27606",
",  c #C37606",
"<  c #C27706",
"1  c #C37707",
"2  c #C37807",
"3  c #C47807",
"4  c #C37708",
"5  c #C47808",
"6  c #C47908",
"7  c #C57A09",
"8  c #C67B09",
"9  c #C5780A",
"0  c #C67B0A",
"q  c #C77C09",
"w  c #C67C0A",
"e  c #C77C0A",
"r  c #C77D0A",
"t  c #C77C0B",
"y  c #C77D0B",
"u  c #C87E0B",
"i  c #C87F0B",
"p  c #C87E0C",
"a  c #C87F0C",
"s  c #C97F0C",
"d  c #C9800C",
"f  c #C9810C",
"g  c #C9800D",
"h  c #CA800D",
"j  c #CB810D",
"k  c #CB800E",
"l  c #CB810E",
"z  c #CC820E",
"x  c #CC820F",
"c  c #CC830F",
"v  c #CD830F",
"b  c #CD840F",
"n  c #CD8410",
"m  c #CD8510",
"M  c #CF8510",
"N  c #CF8711",
"B  c #CF8812",
"V  c #C78118",
"C  c #D08711",
"Z  c #D08712",
"A  c #D18912",
"S  c #D28A13",
"D  c #D38A13",
"F  c #D28B13",
"G  c #D38B13",
"H  c #D38A14",
"J  c #D28B14",
"K  c #D38B14",
"L  c #D48B16",
"P  c #D38C14",
"I  c #D38D14",
"U  c #D38C15",
"Y  c #D48C14",
"T  c #D48C15",
"R  c #D48D15",
"E  c #D48E15",
"W  c #D68E15",
"Q  c #D68F15",
"!  c #D58D16",
"~  c #D68F16",
"^  c #D28D1A",
"/  c #D69016",
"(  c #D79017",
")  c #D89018",
"_  c #D89218",
"`  c #DA9419",
"'  c #DA951A",
"]  c #DE991C",
"[  c #DF9B1D",
"{  c #D69322",
"}  c #E29E20",
"|  c #E29F21",
" . c #E4A021",
".. c #E6A323",
"X. c #EAA725",
"o. c #E9A726",
"O. c #E9A825",
"+. c #F1B12C",
"@. c #F5B62F",
"#. c #F9BB32",
/* pixels */
"            W U D Z W             ",
"        W B 6 i 6 q ; U `         ",
"      J ; W 6 # 2 6 5 p k J       ",
"    D k 6 & M W o o o # ; t W     ",
"  / q n ; o.+.5 X X X X . p 6 Z   ",
"  x k @ ..#.W o X X X X o o n t 6 ",
"U ; q b #.#.q o X X X X o o 6 4 W ",
"^ k @ ] #.#.2 . X X X o o o 6 6 U ",
"D i . ..#.#.x o X X X X X X & p D ",
"{ ; 3 ] #.#.| o X X X X X X ; 5 D ",
"W q q k #.#.#.Z X o X X X o 5 5 D ",
"V M D $ o.#.#.#.W o X X X o n )   ",
"  W t @ & | #.#.#.@.o.W X t i )   ",
"    U k # . x [ O.| k . 5 p W     ",
"    k U & M 3 @ # O x D & W k     ",
"        / D 2 k k i 6 x n         ",
"            W Z D W U ;           "
};
