/* XPM */
static char *f35dc0014fd94119d8e1d0866975fe51tvb2BQaep8Vui60Y[] = {
/* columns rows colors chars-per-pixel */
"33 33 117 2 ",
"   c None",
".  c #BC6E01",
"X  c #BE7103",
"o  c #BF750E",
"O  c #BE7611",
"+  c #BF7816",
"@  c #C17505",
"#  c #C37807",
"$  c #C37709",
"%  c #C57A09",
"&  c #C87E0C",
"*  c #C17A16",
"=  c #C47E1E",
"-  c #C37F20",
";  c #CB820E",
":  c #CE8511",
">  c #CF8811",
",  c #C6801D",
"<  c #D08712",
"1  c #D48E16",
"2  c #D58F16",
"3  c #D58F17",
"4  c #D68E16",
"5  c #D68F16",
"6  c #D68E17",
"7  c #D58D15",
"8  c #D28A13",
"9  c #D69016",
"0  c #D79016",
"q  c #D69017",
"w  c #D79017",
"e  c #D69117",
"r  c #D79117",
"t  c #D69018",
"y  c #D79018",
"u  c #D69118",
"i  c #D79319",
"p  c #D89218",
"a  c #D99219",
"s  c #D99319",
"d  c #D89419",
"f  c #D99419",
"g  c #DA9419",
"h  c #DA9519",
"j  c #DA941A",
"k  c #DB941A",
"l  c #DA951A",
"z  c #DB951A",
"x  c #DA951B",
"c  c #DB961A",
"v  c #DB961B",
"b  c #DC961B",
"n  c #DC971B",
"m  c #DD971C",
"M  c #DD981C",
"N  c #DD991C",
"B  c #DD991D",
"V  c #DE991C",
"C  c #DE991D",
"Z  c #DF9A1D",
"A  c #DE991E",
"S  c #DF9B1E",
"D  c #DF9C1E",
"F  c #E09A1E",
"G  c #E09B1E",
"H  c #E09C1E",
"J  c #E19C1E",
"K  c #E09C1F",
"L  c #E19C1F",
"P  c #E19D1F",
"I  c #E29D1F",
"U  c #E19E1F",
"Y  c #E29E1F",
"T  c #C58124",
"R  c #CA8721",
"E  c #C98625",
"W  c #CC8927",
"Q  c #CC8A27",
"!  c #C7872E",
"~  c #CC8C30",
"^  c #C98D3E",
"/  c #E29E20",
"(  c #E29F20",
")  c #E39F20",
"_  c #E29E21",
"`  c #E29F21",
"'  c #E39F21",
"]  c #E3A020",
"[  c #E3A021",
"{  c #E3A122",
"}  c #E4A021",
"|  c #E4A121",
" . c #E4A022",
".. c #E4A122",
"X. c #E5A122",
"o. c #E5A222",
"O. c #E5A223",
"+. c #E6A322",
"@. c #E6A323",
"#. c #E7A423",
"$. c #E7A524",
"%. c #E8A524",
"&. c #E8A525",
"*. c #E9A726",
"=. c #EBA927",
"-. c #EBA928",
";. c #ECAC29",
":. c #EEAC29",
">. c #EFAF2A",
",. c #F1B12B",
"<. c #F1B22B",
"1. c #F2B32C",
"2. c #F2B22D",
"3. c #F5B62F",
"4. c #F7B830",
"5. c #F8BA31",
"6. c #F9BB32",
/* pixels */
"                          O X : : : X O X                         ",
"                    E 7 ' ' P g u j A ' X.8 #                     ",
"                $ x X.: @ . ; X : . & . X ; F ' #                 ",
"            . < X.; @ # 7 . 7 ; < % y @ ; # # $ m s .             ",
"          - m s @ # < 8 & & & # & @ & & : 8 > % . y _ .           ",
"        T V 8 # . > & ; . . . . . . . . . & # < $ & & O.@         ",
"      * g 8 . & u # . . . ; q # . . . . . . . % > : . & V .       ",
"      8 s X s ; # . . ; ;.6.g . . . . . . . . . @ $ 7 . y u       ",
"    @ X.@ # & $ . X [ 6.6.] . . . . . . . . . . . # # < # ' $     ",
"    V # X $ > . X :.6.6.6.# . . . . . . . . . . . X & > % $ m X   ",
"  o V $ q > . . P 6.6.6.P . . . . . . . . . . . . . . # u X V X   ",
"  8 8 . ; @ . > 6.6.6.6.; . . . . . . . . . . . . . . # . X : u   ",
"! [ . 8 u . . =.6.6.6.6.. . . . . . . . . . . . . . . . 8 > . ' . ",
"O ' X ; & . # 6.6.6.6.1.. . . . . . . . . . . . . . . . # ; $ V . ",
", P # > & . 8 6.6.6.6.,.. . . . . . . . . . . . . . . . ; > & g # ",
"Q b # > X . g 6.6.6.6.4.. . . . . . . . . . . . . . . . # @ # q ; ",
"R g # ; # . V 6.6.6.6.6.# . . . . . . . . . . . . . . . # ; @ 8 ; ",
"Q g @ ; ; . g 6.6.6.6.6.g . . . . . . . . . . . . . . . # < & 4 ; ",
"% A # X X X 8 6.6.6.6.6.,.X . . . . . . . . . . . . . . @ ; # b & ",
"o &.. > 8 . X 6.6.6.6.6.6.s . . . . . . . . . . . . . . 8 < @ X.. ",
"+ F X @ & . . &.6.6.6.6.6.6.; . . . . . . . . . . . . . @ . X D . ",
"  8 ; 8 8 X . ; 6.6.6.6.6.6.3.; . . . . . . . . . . . @ g q & 7   ",
"  ~ X.X & > . . V 6.6.6.6.6.6.6.b # . . . . . . . . . < # @ P #   ",
"  ^ g ; 7 ; @ . . P 6.6.6.6.6.6.6.1.P > # # # @ . . @ 8 8 # '     ",
"    @ O.. # 7 . X X g 6.6.6.6.6.6.6.6.6.6.6.&.@ . . 7 ; . F #     ",
"      8 7 # . > @ . . & -.6.6.6.6.6.6.6.:.7 . . @ 7 $ $ 8 b       ",
"      . A > $ & # > . . . $ 8 V P P q & . . . ; # 8 : & ' .       ",
"        - A & . 8 @ g X . . X . . . . . . . g @ > . # &.@         ",
"          * m s @ & q @ 7 & & # X & # ; > & > > . 8 V $           ",
"            O 7 D $ . ; @ ; . > & & ; > & 8 . X [ y .             ",
"                # ' ' ; . & @ > @ ; X ; . ; ' ' #                 ",
"                    # 8 [ @.b r 8 7 b X.X.u X .                   ",
"                        * X * ; ; : # . .                         "
};
